<?xml version="1.0" encoding="iso-8859-1"?>
<!-- Generator: Adobe Illustrator 19.0.0, SVG Export Plug-In . SVG Version: 6.00 Build 0)  -->
<svg version="1.1" id="Layer_1" xmlns="http://www.w3.org/2000/svg" xmlns:xlink="http://www.w3.org/1999/xlink" x="0px" y="0px"
	 viewBox="0 0 512 512" style="enable-background:new 0 0 512 512;" xml:space="preserve" height="18" width="18"  fill="white">
<g>
	<g>
		<g>
			<path d="M494.14,0H17.86C7.997,0,0,7.997,0,17.86V494.14C0,504.003,7.997,512,17.86,512H494.14c9.864,0,17.86-7.997,17.86-17.86
				V17.86C512,7.997,504.003,0,494.14,0z M101.209,476.279c-16.414,0-29.767-13.354-29.767-29.767
				c0-16.414,13.354-29.767,29.767-29.767s29.767,13.354,29.767,29.767C130.977,462.925,117.623,476.279,101.209,476.279z
				 M196.465,476.279c-16.414,0-29.767-13.354-29.767-29.767c0-16.414,13.354-29.767,29.767-29.767
				c16.414,0,29.767,13.354,29.767,29.767C226.233,462.925,212.879,476.279,196.465,476.279z M440.558,363.163
				c0,9.864-7.997,17.86-17.86,17.86H89.302c-9.864,0-17.86-7.997-17.86-17.86V89.302c0-9.864,7.997-17.86,17.86-17.86h333.395
				c9.864,0,17.86,7.997,17.86,17.86V363.163z"/>
			<path d="M329.117,238.773c-18.565,19.045-44.482,30.894-73.117,30.894s-54.551-11.849-73.117-30.894
				c-34.755,23.527-57.643,63.319-57.643,108.356c0,7.359,5.965,13.324,13.324,13.324h234.871c7.359,0,13.324-5.965,13.324-13.324
				C386.76,302.092,363.871,262.3,329.117,238.773z"/>
			<path d="M256,243.019c41.633,0,75.503-33.871,75.503-75.503S297.633,92.012,256,92.012s-75.503,33.871-75.503,75.503
				S214.367,243.019,256,243.019z"/>
		</g>
	</g>
</g>
<g>
</g>
<g>
</g>
<g>
</g>
<g>
</g>
<g>
</g>
<g>
</g>
<g>
</g>
<g>
</g>
<g>
</g>
<g>
</g>
<g>
</g>
<g>
</g>
<g>
</g>
<g>
</g>
<g>
</g>
</svg>
